<svg width="50" height="36" viewBox="0 0 50 36" fill="none" xmlns="http://www.w3.org/2000/svg">
<path d="M39.53 0.54254H10.3625C4.6375 0.54254 0 5.13004 0 10.79V25.21C0 30.87 4.64 35.46 10.3625 35.46H39.53C45.255 35.46 49.8925 30.87 49.8925 25.21V10.79C49.8925 5.13004 45.2525 0.540039 39.53 0.540039V0.54254ZM32.5225 18.7L18.88 25.1375C18.7968 25.1776 18.7048 25.196 18.6126 25.1909C18.5204 25.1859 18.4309 25.1576 18.3526 25.1087C18.2742 25.0598 18.2095 24.9919 18.1645 24.9112C18.1195 24.8306 18.0956 24.7399 18.095 24.6475V11.375C18.0967 11.2822 18.1218 11.1913 18.1681 11.1109C18.2143 11.0304 18.2802 10.9629 18.3596 10.9147C18.4389 10.8666 18.5292 10.8393 18.6219 10.8354C18.7147 10.8315 18.8069 10.8512 18.89 10.8925L32.535 17.73C32.6259 17.7754 32.7021 17.8454 32.755 17.9321C32.8079 18.0188 32.8352 18.1187 32.8339 18.2202C32.8326 18.3218 32.8027 18.4209 32.7476 18.5062C32.6925 18.5915 32.6145 18.6596 32.5225 18.7025V18.7Z" fill="white"/>
</svg>
