<svg width="46" height="38" viewBox="0 0 46 38" fill="none" xmlns="http://www.w3.org/2000/svg">
<path d="M40.2251 6.53006C42.2451 5.29006 43.5826 3.59756 44.2376 1.44506C42.3927 2.44283 40.4129 3.16787 38.3601 3.59756C36.6026 1.70756 34.3776 0.747559 31.7101 0.747559C29.1026 0.747559 26.9001 1.66256 25.1026 3.44256C24.2345 4.28782 23.5482 5.30142 23.0856 6.42126C22.6231 7.5411 22.394 8.74359 22.4126 9.95506C22.4126 10.7276 22.5101 11.4176 22.7051 12.0026C15.0151 11.7401 8.65006 8.55006 3.63506 2.41006C2.78506 3.91256 2.36006 5.44256 2.36006 7.02506C2.36006 10.2776 3.73256 12.8551 6.47256 14.7476C4.91006 14.6151 3.53256 14.2201 2.36006 13.5726C2.36006 15.8951 3.04256 17.8351 4.41006 19.5426C5.73845 21.2064 7.61051 22.3491 9.69756 22.7701C8.91756 22.9701 8.09506 23.0651 7.25006 23.0651C6.47006 23.0651 5.91756 23.0001 5.59006 22.8576C6.16506 24.7501 7.25006 26.2851 8.81756 27.4601C10.3672 28.6367 12.2521 29.2875 14.1976 29.3176C10.8676 31.9301 7.06006 33.2226 2.75256 33.2226C1.69756 33.2226 0.950059 33.2076 0.497559 33.1276C4.74006 35.8826 9.46256 37.2501 14.6876 37.2501C20.0351 37.2501 24.7601 35.8951 28.8726 33.1851C32.9851 30.4901 36.0201 27.1651 37.9701 23.2501C39.8984 19.4618 40.9025 15.2709 40.9001 11.0201V9.85006C42.6975 8.52487 44.2535 6.90035 45.5001 5.04756C43.8166 5.77721 42.0422 6.2759 40.2251 6.53006Z" fill="white"/>
</svg>
